<svg width="400" height="400" viewBox="0 0 400 400" fill="none" xmlns="http://www.w3.org/2000/svg">
<rect width="400" height="400" rx="40" fill="#008AEF"/>
<path fill-rule="evenodd" clip-rule="evenodd" d="M209.381 140.438C212.838 141.592 216.069 143.407 218.883 145.813C222.646 149.031 225.482 153.152 227.157 157.75H224.628C219.446 157.75 215.246 161.954 215.246 167.139C215.246 172.324 219.447 176.528 224.628 176.528H227.438C226.757 178.588 225.841 180.578 224.694 182.455C221.151 188.256 215.659 192.601 209.205 194.708V209.623L240.141 212.418C241.582 210.098 243.738 208.31 246.283 207.327C248.828 206.344 251.625 206.218 254.247 206.968C256.87 207.719 259.177 209.306 260.82 211.487C262.462 213.669 263.351 216.327 263.351 219.06C263.351 221.792 262.462 224.45 260.82 226.631C259.177 228.812 256.87 230.399 254.247 231.15C251.625 231.9 248.828 231.774 246.283 230.791C243.738 229.808 241.582 228.02 240.141 225.7L209.263 228.496L210.147 247.427C210.147 260.709 210.441 272.652 210.736 285.993C210.621 291.466 211.603 292.713 213.624 297.798C215.33 301.538 218.079 304.704 221.539 306.914C225 309.124 229.025 310.284 233.129 310.254C253.812 310.254 258.528 306.712 280.802 286.641L284.573 282.922C284.814 282.688 284.972 282.382 285.022 282.051C285.073 281.719 285.013 281.379 284.853 281.085C284.692 280.79 284.439 280.556 284.133 280.419C283.828 280.282 283.485 280.248 283.159 280.325L272.552 282.922C272.269 282.986 271.973 282.969 271.7 282.871C271.426 282.774 271.186 282.6 271.007 282.372C270.828 282.143 270.717 281.868 270.688 281.579C270.659 281.29 270.713 280.998 270.843 280.738C279.226 266.41 292.526 255.625 308.261 250.395C308.474 250.324 308.701 250.301 308.924 250.327C309.147 250.352 309.362 250.427 309.553 250.546C309.744 250.664 309.908 250.823 310.031 251.011C310.154 251.199 310.234 251.413 310.266 251.635C311.326 258.602 313.918 284.458 304.49 298.448C304.36 298.695 304.165 298.902 303.927 299.046C303.688 299.19 303.414 299.266 303.135 299.266C302.857 299.266 302.583 299.19 302.344 299.046C302.105 298.902 301.909 298.695 301.779 298.448C300.895 296.205 299.599 292.899 298.538 290.302C298.422 290.022 298.226 289.782 297.975 289.614C297.723 289.446 297.426 289.357 297.124 289.357C296.822 289.357 296.526 289.446 296.274 289.614C296.023 289.782 295.827 290.022 295.711 290.302C292.352 299.983 280.27 324.185 239.317 342.249C237.897 342.782 208.673 352.936 201.485 368.046C201.344 368.332 201.125 368.574 200.855 368.742C200.584 368.91 200.271 369 199.952 369C199.634 369 199.322 368.91 199.051 368.742C198.781 368.574 198.561 368.333 198.42 368.046C191.29 352.935 162.066 342.781 160.589 342.249C119.694 324.185 107.554 299.983 104.254 290.302C104.148 290.003 103.952 289.744 103.694 289.561C103.436 289.379 103.127 289.281 102.811 289.28C102.495 289.281 102.185 289.379 101.927 289.561C101.668 289.744 101.473 290.003 101.367 290.302L98.1256 298.448C98.0616 298.715 97.9272 298.961 97.7362 299.159C97.5451 299.356 97.3037 299.499 97.0388 299.571C96.7739 299.644 96.4938 299.643 96.2291 299.57C95.9645 299.497 95.7234 299.354 95.5328 299.156C86.1046 284.753 88.6977 258.896 89.6405 251.93C89.6639 251.71 89.737 251.497 89.8535 251.309C89.9701 251.121 90.1274 250.96 90.3139 250.841C90.5006 250.722 90.7126 250.646 90.9323 250.62C91.1521 250.594 91.3759 250.619 91.5851 250.691C107.378 255.834 120.75 266.583 129.181 280.915C129.311 281.175 129.365 281.467 129.336 281.756C129.307 282.045 129.195 282.321 129.016 282.549C128.837 282.778 128.597 282.952 128.323 283.049C128.05 283.146 127.754 283.164 127.471 283.099L116.865 280.502C116.539 280.426 116.195 280.458 115.889 280.595C115.584 280.732 115.332 280.967 115.171 281.261C115.011 281.556 114.951 281.896 115.002 282.227C115.052 282.559 115.21 282.866 115.451 283.099L119.104 286.641C141.379 306.712 146.093 310.254 166.836 310.254C170.933 310.287 174.952 309.128 178.404 306.917C181.855 304.706 184.593 301.538 186.282 297.798C188.321 292.717 189.324 291.47 189.228 285.993C189.464 272.652 189.759 260.768 189.759 247.427L190.642 228.496L159.823 225.7C158.383 228.02 156.226 229.808 153.681 230.791C151.136 231.774 148.34 231.9 145.717 231.15C143.095 230.399 140.787 228.812 139.145 226.631C137.502 224.45 136.614 221.792 136.614 219.06C136.614 216.327 137.502 213.669 139.145 211.487C140.787 209.306 143.095 207.719 145.717 206.968C148.34 206.218 151.136 206.344 153.681 207.327C156.226 208.31 158.383 210.098 159.823 212.418L191.526 209.623V194.708C185.072 192.601 179.579 188.256 176.036 182.455C174.89 180.578 173.974 178.588 173.292 176.528H176.545C181.726 176.528 185.927 172.324 185.927 167.139C185.927 161.954 181.726 157.75 176.545 157.75H173.574C175.249 153.152 178.085 149.031 181.847 145.813C184.462 143.578 187.437 141.853 190.618 140.694V143.667C190.618 148.852 194.818 153.055 199.999 153.056C205.181 153.055 209.381 148.852 209.381 143.667V140.438ZM204.522 156.469C202.369 155.575 199.998 155.342 197.712 155.797C195.427 156.253 193.326 157.377 191.678 159.028C190.03 160.679 188.908 162.784 188.453 165.074C187.998 167.364 188.231 169.738 189.123 171.895C190.015 174.052 191.526 175.896 193.464 177.194C195.401 178.491 197.681 179.183 200.012 179.183C203.137 179.183 206.135 177.939 208.345 175.726C210.555 173.511 211.798 170.507 211.798 167.376C211.798 165.041 211.106 162.758 209.811 160.817C208.516 158.876 206.675 157.362 204.522 156.469Z" fill="white"/>
<path d="M289.796 129.516C291.129 127.293 294.01 126.572 296.231 127.905C298.453 129.239 299.173 132.122 297.84 134.345C283.897 157.602 258.782 171.833 231.681 171.833H224.627C222.037 171.833 219.936 169.732 219.936 167.139C219.936 164.546 222.037 162.444 224.627 162.444H231.681C255.487 162.444 277.548 149.945 289.796 129.516Z" fill="white"/>
<path d="M319.618 66.2083C324.8 66.2083 329 70.4119 329 75.5972V127.236C329 132.421 324.8 136.625 319.618 136.625H301.939C304.497 132.197 303.042 126.521 298.644 123.88C294.201 121.213 288.44 122.655 285.774 127.101C283.722 130.523 281.373 133.706 278.773 136.625H268.018C262.837 136.625 258.636 132.421 258.636 127.236V75.5972C258.636 70.4119 262.837 66.2083 268.018 66.2083H319.618Z" fill="white"/>
<path d="M195.309 143.667V96.7222C195.309 94.1296 197.409 92.0278 200 92.0278C202.591 92.0278 204.691 94.1296 204.691 96.7222V143.667C204.691 146.259 202.591 148.361 200 148.361C197.409 148.361 195.309 146.259 195.309 143.667Z" fill="white"/>
<path d="M225.8 31C230.981 31 235.182 35.2035 235.182 40.3889V92.0278C235.182 97.2131 230.981 101.417 225.8 101.417H209.382V96.7222C209.382 91.5369 205.181 87.3333 200 87.3333C194.819 87.3333 190.618 91.5369 190.618 96.7222V101.417H174.2C169.019 101.417 164.818 97.2131 164.818 92.0278V40.3889C164.818 35.2035 169.019 31 174.2 31H225.8Z" fill="white"/>
<path d="M103.769 127.905C105.99 126.572 108.871 127.293 110.204 129.516C122.452 149.945 144.513 162.444 168.319 162.444H176.545C179.136 162.444 181.236 164.546 181.236 167.139C181.236 169.732 179.136 171.833 176.545 171.833H168.319C141.218 171.833 116.103 157.602 102.16 134.345C100.827 132.122 101.547 129.239 103.769 127.905Z" fill="white"/>
<path d="M131.982 66.2083C137.163 66.2083 141.364 70.4119 141.364 75.5972V127.236C141.364 132.421 137.163 136.625 131.982 136.625H121.228C118.628 133.706 116.279 130.523 114.227 127.101C111.645 122.794 106.156 121.306 101.776 123.642L101.356 123.88C96.9577 126.521 95.5035 132.197 98.0609 136.625H80.3818C75.2004 136.625 71 132.421 71 127.236V75.5972C71 70.4119 75.2004 66.2083 80.3818 66.2083H131.982Z" fill="white"/>
<path d="M102.532 128.98C102.58 128.921 102.63 128.861 102.681 128.804C102.699 128.783 102.718 128.763 102.737 128.742C102.665 128.819 102.598 128.899 102.532 128.98Z" fill="white"/>
<path d="M102.78 128.696C102.8 128.676 102.819 128.656 102.839 128.636L103.007 128.474C102.929 128.546 102.853 128.62 102.78 128.696Z" fill="white"/>
</svg>
