<svg width="588" height="152" viewBox="0 0 588 152" fill="none" xmlns="http://www.w3.org/2000/svg">
<path fill-rule="evenodd" clip-rule="evenodd" d="M63.1688 53.0852C65.131 53.4472 66.977 54.3152 68.5133 55.6189C70.5857 57.3777 71.959 59.8137 72.3865 62.4889C72.3922 62.5242 72.3971 62.5596 72.4024 62.595H69.8213L69.7088 62.5977C68.5569 62.6562 67.6416 63.6056 67.6414 64.7666C67.6417 65.9275 68.557 66.8765 69.7088 66.935L69.8213 66.9382H72.2086C71.9311 68.0856 71.4751 69.192 70.846 70.2142C69.4238 72.5249 67.2188 74.2557 64.628 75.0952V81.036L77.0465 82.1496C77.6248 81.2254 78.4903 80.5131 79.5118 80.1215C80.5334 79.7299 81.6559 79.6801 82.7087 79.979C83.7614 80.278 84.6878 80.9094 85.3471 81.7782C86.0065 82.6471 86.3631 83.7064 86.3631 84.7948C86.363 85.8832 86.0065 86.9419 85.3471 87.8108C84.6877 88.6797 83.7615 89.3116 82.7087 89.6106C81.6559 89.9095 80.5334 89.8592 79.5118 89.4676C78.4903 89.0759 77.6248 88.3642 77.0465 87.44L64.6515 88.5536L65.0063 103.574C65.0063 108.865 65.125 113.622 65.2432 118.937C65.1969 121.116 65.591 121.613 66.4022 123.638C67.0867 125.128 68.1902 126.389 69.5794 127.27C70.9686 128.15 72.5844 128.612 74.2317 128.6C82.5343 128.6 84.4269 127.189 93.3682 119.194L94.8821 117.713C94.9786 117.62 95.0419 117.498 95.0622 117.366C95.0825 117.234 95.0589 117.098 94.9945 116.981C94.9301 116.863 94.8285 116.77 94.7057 116.715C94.583 116.661 94.4453 116.648 94.3143 116.678L90.0567 117.713C89.9432 117.738 89.8242 117.731 89.7144 117.692C89.6048 117.654 89.5084 117.585 89.4366 117.494C89.3647 117.403 89.3205 117.293 89.3088 117.178C89.2972 117.062 89.3183 116.946 89.3705 116.843C92.7357 111.135 98.0748 106.84 104.391 104.757C104.477 104.728 104.568 104.719 104.657 104.729C104.747 104.739 104.833 104.769 104.91 104.816C104.987 104.863 105.052 104.926 105.101 105.001C105.15 105.076 105.183 105.162 105.195 105.25C105.621 108.025 106.662 118.324 102.878 123.897C102.825 123.995 102.747 124.078 102.651 124.136C102.555 124.193 102.445 124.223 102.333 124.223C102.221 124.223 102.111 124.193 102.016 124.136C101.92 124.078 101.841 123.995 101.789 123.897C101.434 123.003 100.914 121.687 100.488 120.652C100.441 120.541 100.362 120.445 100.262 120.378C100.161 120.312 100.042 120.276 99.9203 120.276C99.799 120.276 99.6801 120.312 99.5791 120.378C99.4782 120.445 99.3992 120.541 99.3526 120.652C98.0043 124.508 93.1553 134.149 76.7156 141.345C76.148 141.556 64.4155 145.6 61.5294 151.62C61.4727 151.734 61.3847 151.83 61.2761 151.897C61.1675 151.964 61.042 152 60.9141 152C60.7863 152 60.6608 151.964 60.5522 151.897C60.4436 151.83 60.3561 151.734 60.2994 151.62C57.4377 145.601 45.7084 141.558 45.1132 141.345C28.697 134.149 23.8239 124.508 22.4992 120.652C22.4567 120.533 22.3779 120.43 22.2743 120.357C22.1706 120.285 22.0468 120.245 21.92 120.245C21.793 120.245 21.6689 120.285 21.5651 120.357C21.4614 120.43 21.3827 120.533 21.3402 120.652L20.0393 123.897C20.0136 124.004 19.9593 124.101 19.8826 124.18C19.806 124.259 19.7093 124.316 19.6031 124.344C19.4968 124.373 19.384 124.373 19.2777 124.344C19.1715 124.315 19.0748 124.258 18.9982 124.179C15.2136 118.442 16.2543 108.142 16.6328 105.368C16.6422 105.28 16.6717 105.195 16.7185 105.12C16.7653 105.045 16.8286 104.981 16.9036 104.934C16.9785 104.886 17.0637 104.857 17.1519 104.846C17.2401 104.836 17.3295 104.845 17.4134 104.874C23.7529 106.923 29.1207 111.204 32.5053 116.913C32.5574 117.017 32.5791 117.133 32.5675 117.248C32.5558 117.363 32.511 117.473 32.4392 117.564C32.3674 117.655 32.271 117.724 32.1613 117.763C32.0516 117.802 31.9326 117.809 31.819 117.783L27.5615 116.749C27.4305 116.718 27.2928 116.731 27.17 116.786C27.0473 116.841 26.9457 116.934 26.8812 117.051C26.8169 117.169 26.7933 117.304 26.8136 117.436C26.8339 117.568 26.8971 117.69 26.9937 117.783L28.46 119.194C37.4013 127.189 39.2942 128.6 47.6206 128.6C49.2651 128.613 50.8785 128.151 52.2641 127.271C53.6498 126.39 54.7486 125.128 55.4266 123.638C56.2453 121.614 56.6473 121.118 56.6091 118.937C56.7037 113.622 56.822 108.888 56.822 103.574L57.1768 88.5536L44.8053 87.44C44.227 88.3642 43.3614 89.0759 42.3399 89.4676C41.3184 89.8591 40.1963 89.9094 39.1436 89.6106C38.0908 89.3117 37.1646 88.6797 36.5052 87.8108C35.8458 86.9419 35.4887 85.8832 35.4887 84.7948C35.4887 83.7063 35.8458 82.6471 36.5052 81.7782C37.1646 80.9094 38.0909 80.2779 39.1436 79.979C40.1963 79.6802 41.3184 79.7299 42.3399 80.1215C43.3615 80.5131 44.227 81.2254 44.8053 82.1496L57.5316 81.036V75.0952C54.9408 74.2557 52.7359 72.5249 51.3137 70.2142C50.7014 69.2195 50.2525 68.145 49.9729 67.0307H52.1795L52.292 67.0274C53.4437 66.9687 54.3592 66.0199 54.3593 64.859C54.3593 63.6981 53.4438 62.7488 52.292 62.6901L52.1795 62.6874H49.7431C49.7525 62.6212 49.7625 62.555 49.7731 62.4889C50.2007 59.8137 51.5739 57.3777 53.6464 55.6189C55.1056 54.3806 56.8443 53.5358 58.6966 53.1439V55.6777C58.6966 56.9076 59.6978 57.9047 60.9327 57.9048C62.1676 57.9048 63.1688 56.9077 63.1688 55.6777V53.0852ZM62.7484 59.8633C61.884 59.5074 60.9327 59.4144 60.015 59.5958C59.0974 59.7772 58.2544 60.2251 57.5928 60.8828C56.9312 61.5404 56.4805 62.3782 56.2979 63.2904C56.1153 64.2026 56.2089 65.1486 56.567 66.0079C56.9251 66.8672 57.5317 67.6014 58.3096 68.1181C59.0875 68.6348 60.0025 68.9109 60.9382 68.9109C62.1926 68.9108 63.3959 68.4154 64.283 67.5336C65.1701 66.6517 65.669 65.4554 65.6691 64.2082C65.6691 63.2781 65.3913 62.3684 64.8715 61.595C64.3517 60.8218 63.6127 60.2192 62.7484 59.8633Z" fill="white"/>
<path d="M72.2102 66.9382H72.2086C72.2218 66.8836 72.2344 66.8289 72.2468 66.774C72.2345 66.8287 72.2234 66.8837 72.2102 66.9382Z" fill="white"/>
<path d="M52.3804 65.8981L52.2881 65.9117C52.322 65.9082 52.3557 65.9025 52.3886 65.8959C52.3859 65.8965 52.3831 65.8975 52.3804 65.8981Z" fill="white"/>
<path d="M68.7802 64.9765C68.7796 64.9735 68.7786 64.9702 68.778 64.9672L68.7649 64.8748C68.7684 64.9091 68.7735 64.9432 68.7802 64.9765Z" fill="white"/>
<path d="M53.1752 64.4958C53.1935 64.5443 53.2094 64.5942 53.22 64.6459L53.2211 64.6551C53.2102 64.6003 53.1944 64.5472 53.1752 64.4958Z" fill="white"/>
<path d="M69.1012 63.9907C69.1158 63.9772 69.1301 63.9631 69.1454 63.9505L69.1585 63.9401C69.1388 63.9562 69.1199 63.9735 69.1012 63.9907Z" fill="white"/>
<path d="M69.4921 63.7612C69.4964 63.7598 69.5008 63.7577 69.5052 63.7564L69.6073 63.7303C69.5681 63.7383 69.5296 63.7491 69.4921 63.7612Z" fill="white"/>
<path d="M60.9329 47.9605C61.5503 47.9605 62.0508 48.4592 62.0509 49.0741V55.7554C62.0509 56.3704 61.5503 56.869 60.9329 56.869C60.3154 56.869 59.8148 56.3704 59.8148 55.7554V49.0741C59.8149 48.4592 60.3154 47.9605 60.9329 47.9605Z" fill="white"/>
<path d="M58.6968 41.2406C58.0793 41.2406 57.5788 41.7392 57.5788 42.3542V48.4787C57.5788 49.0936 58.0794 49.5923 58.6968 49.5923V51.8194C56.8444 51.8194 55.3428 50.3236 55.3427 48.4787V42.3542C55.3427 40.5092 56.8444 39.0135 58.6968 39.0135V41.2406Z" fill="white"/>
<path d="M63.1689 39.0135C65.0213 39.0135 66.523 40.5092 66.523 42.3542V48.4787C66.5229 50.3236 65.0213 51.8194 63.1689 51.8194V49.5923C63.7863 49.5923 64.2869 49.0936 64.287 48.4787V42.3542C64.287 41.7392 63.7864 41.2406 63.1689 41.2406V39.0135Z" fill="white"/>
<path d="M60.9329 34.0025C61.5503 34.0025 62.0509 34.5011 62.0509 35.1161V41.7974C62.0508 42.4123 61.5503 42.9109 60.9329 42.9109C60.3154 42.9109 59.8149 42.4123 59.8148 41.7974V35.1161C59.8148 34.5011 60.3154 34.0025 60.9329 34.0025Z" fill="white"/>
<path d="M58.6968 27.2821C58.0793 27.2821 57.5788 27.7806 57.5788 28.3956V34.5201C57.5788 35.1351 58.0793 35.6337 58.6968 35.6337V37.8608C56.8444 37.8608 55.3427 36.3651 55.3427 34.5201V28.3956C55.3427 26.5506 56.8444 25.0549 58.6968 25.0549V27.2821Z" fill="white"/>
<path d="M63.1689 25.0549C65.0213 25.0549 66.523 26.5506 66.523 28.3956V34.5201C66.523 36.3651 65.0213 37.8608 63.1689 37.8608V35.6337C63.7864 35.6337 64.287 35.1351 64.287 34.5201V28.3956C64.287 27.7806 63.7864 27.2821 63.1689 27.2821V25.0549Z" fill="white"/>
<path d="M60.9329 21.1575C61.5503 21.1575 62.0509 21.6561 62.0509 22.2711V28.9524C62.0509 29.5674 61.5503 30.0659 60.9329 30.0659C60.3154 30.0659 59.8148 29.5674 59.8148 28.9524V22.2711C59.8148 21.6561 60.3154 21.1575 60.9329 21.1575Z" fill="white"/>
<path d="M70.9952 0C72.2301 0 73.2312 0.99711 73.2312 2.22711V22.2711C73.2312 23.5011 72.2301 24.4982 70.9952 24.4982H63.1689V22.2711C63.1689 21.0411 62.1678 20.044 60.9329 20.044C59.6979 20.044 58.6968 21.0411 58.6968 22.2711V24.4982H50.8705C49.6356 24.4982 48.6345 23.5011 48.6345 22.2711V2.22711C48.6345 0.99711 49.6356 6.19584e-08 50.8705 0H70.9952Z" fill="white"/>
<path d="M84.1599 66.9747C84.1598 67.5588 83.6841 68.0328 83.0975 68.0328H76.7251C76.1386 68.0327 75.6628 67.5588 75.6627 66.9747H73.5386C73.5387 68.7273 74.9654 70.1483 76.7251 70.1484H83.0975C84.8573 70.1484 86.2839 68.7273 86.2841 66.9747H84.1599Z" fill="white"/>
<path d="M99.4919 59.7083C99.7727 60.2211 99.5831 60.8639 99.0683 61.1437L93.4738 64.1832C92.9589 64.4628 92.3134 64.274 92.0325 63.7612L90.1677 64.7742C91.0104 66.3128 92.946 66.8797 94.4908 66.0406L100.085 63.0011C101.63 62.1618 102.199 60.234 101.357 58.6953L99.4919 59.7083Z" fill="white"/>
<path d="M69.8209 63.8009C69.2345 63.8012 68.7591 64.2749 68.7591 64.859C68.7592 65.4431 69.2346 65.9169 69.8209 65.9171H76.1939C76.7804 65.9171 77.2561 65.4432 77.2563 64.859C77.2563 64.2748 76.7805 63.8009 76.1939 63.8009H69.8209Z" fill="white"/>
<path d="M92.4136 61.1437C92.1326 60.6311 91.4878 60.4422 90.9729 60.7218L85.3784 63.7612C84.8637 64.0411 84.6735 64.6839 84.9542 65.1967C85.2351 65.7094 85.8805 65.8982 86.3954 65.6186L91.99 62.5792C92.5049 62.2994 92.6944 61.6566 92.4136 61.1437Z" fill="white"/>
<path d="M76.7251 59.5697C74.9654 59.5698 73.5386 60.9907 73.5386 62.7434H75.6627C75.6627 62.1592 76.1386 61.6854 76.7251 61.6853H83.0975C83.6841 61.6853 84.1599 62.1591 84.1599 62.7434H86.2841C86.2841 60.9906 84.8573 59.5697 83.0975 59.5697H76.7251Z" fill="white"/>
<path d="M99.3221 54.9806C98.4794 53.4419 96.5439 52.875 94.999 53.7143L89.4045 56.7537C87.8599 57.5931 87.2905 59.5209 88.1331 61.0595L89.9979 60.0465C89.717 59.5337 89.9068 58.8909 90.4215 58.6111L96.0161 55.5716C96.531 55.2919 97.1764 55.4807 97.4573 55.9936L99.3221 54.9806Z" fill="white"/>
<path d="M103.934 50.6531C103.441 50.3369 102.784 50.4784 102.466 50.9695L99.0164 56.3068C98.6992 56.7979 98.8411 57.4526 99.3342 57.7688C99.8273 58.0851 100.485 57.9429 100.803 57.4518L104.252 52.1152C104.57 51.6239 104.427 50.9694 103.934 50.6531Z" fill="white"/>
<path d="M109.458 46.0167C109.951 46.333 110.093 46.9876 109.776 47.4788L106.326 52.8155C106.008 53.3065 105.351 53.4487 104.858 53.1325L103.708 54.9115C105.188 55.8601 107.159 55.4345 108.112 53.9611L111.562 48.6244C112.514 47.1507 112.087 45.1865 110.607 44.2376L109.458 46.0167Z" fill="white"/>
<path d="M107.035 41.9469C105.556 40.9982 103.584 41.4238 102.631 42.8974L99.1813 48.234C98.2289 49.7077 98.656 51.672 100.136 52.6208L101.286 50.8417C100.793 50.5255 100.65 49.8709 100.968 49.3797L104.417 44.043C104.735 43.5518 105.392 43.4097 105.886 43.726L107.035 41.9469Z" fill="white"/>
<path d="M109.003 35.948C108.418 35.9057 107.909 36.3441 107.867 36.9267L107.404 43.2568C107.362 43.8392 107.802 44.3462 108.387 44.3888C108.971 44.4312 109.48 43.9932 109.523 43.4106L109.986 37.08C110.028 36.4973 109.588 35.9904 109.003 35.948Z" fill="white"/>
<path d="M111.623 29.2438C112.208 29.2862 112.648 29.7927 112.605 30.3753L112.143 36.7059C112.1 37.2885 111.591 37.727 111.006 37.6846L110.852 39.7943C112.607 39.9215 114.134 38.6077 114.262 36.8598L114.724 30.5292C114.852 28.7811 113.532 27.2608 111.777 27.1336L111.623 29.2438Z" fill="white"/>
<path d="M107.54 26.8264C105.785 26.6994 104.258 28.0135 104.131 29.7614L103.668 36.0921C103.541 37.8399 104.86 39.3603 106.615 39.4876L106.769 37.3774C106.184 37.3349 105.744 36.8279 105.787 36.2454L106.249 29.9148C106.292 29.3322 106.801 28.8943 107.386 28.9366L107.54 26.8264Z" fill="white"/>
<path d="M109.843 21.7719C109.226 21.7399 108.7 22.2121 108.668 22.8262L108.319 29.4988C108.287 30.1129 108.761 30.6364 109.378 30.6684C109.994 30.7003 110.52 30.2287 110.553 29.6146L110.902 22.942C110.934 22.3279 110.46 21.804 109.843 21.7719Z" fill="white"/>
<path d="M99.6393 0C98.4044 0 97.4033 0.99711 97.4033 2.22711V22.2711C97.4033 23.5011 98.4044 24.4982 99.6393 24.4982H107.407L107.481 22.8257C107.535 21.5969 108.579 20.6446 109.813 20.6986C111.047 20.7526 112.003 21.7926 111.949 23.0214L111.884 24.4982H119.764C120.999 24.4982 122 23.5011 122 22.2711V2.22711C122 0.99711 120.999 0 119.764 0H99.6393Z" fill="white"/>
<path d="M37.8401 66.9747C37.8402 67.5588 38.3159 68.0328 38.9025 68.0328H45.2749C45.8614 68.0327 46.3372 67.5588 46.3373 66.9747H48.4614C48.4613 68.7273 47.0346 70.1483 45.2749 70.1484H38.9025C37.1427 70.1484 35.7161 68.7273 35.7159 66.9747H37.8401Z" fill="white"/>
<path d="M22.5081 59.7083C22.2273 60.2211 22.4169 60.8639 22.9317 61.1437L28.5262 64.1832C29.0411 64.4628 29.6866 64.274 29.9675 63.7612L31.8323 64.7742C30.9896 66.3128 29.054 66.8797 27.5092 66.0406L21.9147 63.0011C20.3699 62.1618 19.8007 60.234 20.6432 58.6953L22.5081 59.7083Z" fill="white"/>
<path d="M52.1791 63.8009C52.7655 63.8012 53.2409 64.2749 53.2409 64.859C53.2408 65.4431 52.7654 65.9169 52.1791 65.9171H45.8061C45.2196 65.9171 44.7439 65.4432 44.7437 64.859C44.7437 64.2748 45.2195 63.8009 45.8061 63.8009H52.1791Z" fill="white"/>
<path d="M29.5864 61.1437C29.8674 60.6311 30.5122 60.4422 31.0271 60.7218L36.6216 63.7612C37.1363 64.0411 37.3265 64.6839 37.0458 65.1967C36.7649 65.7094 36.1195 65.8982 35.6046 65.6186L30.01 62.5792C29.4951 62.2994 29.3056 61.6566 29.5864 61.1437Z" fill="white"/>
<path d="M45.2749 59.5697C47.0346 59.5698 48.4614 60.9907 48.4614 62.7434H46.3373C46.3373 62.1592 45.8614 61.6854 45.2749 61.6853H38.9025C38.3159 61.6853 37.8401 62.1591 37.8401 62.7434H35.7159C35.7159 60.9906 37.1427 59.5697 38.9025 59.5697H45.2749Z" fill="white"/>
<path d="M22.6779 54.9806C23.5206 53.4419 25.4561 52.875 27.001 53.7143L32.5955 56.7537C34.1401 57.5931 34.7095 59.5209 33.8669 61.0595L32.0021 60.0465C32.283 59.5337 32.0932 58.8909 31.5785 58.6111L25.9839 55.5716C25.469 55.2919 24.8236 55.4807 24.5427 55.9936L22.6779 54.9806Z" fill="white"/>
<path d="M18.066 50.6531C18.5591 50.3369 19.2164 50.4784 19.5339 50.9695L22.9836 56.3068C23.3008 56.7979 23.1589 57.4526 22.6658 57.7688C22.1727 58.0851 21.5149 57.9429 21.1973 57.4518L17.7477 52.1152C17.4301 51.6239 17.5728 50.9694 18.066 50.6531Z" fill="white"/>
<path d="M12.5424 46.0167C12.0492 46.333 11.9067 46.9876 12.2241 47.4788L15.6743 52.8155C15.9919 53.3065 16.6491 53.4487 17.1423 53.1325L18.292 54.9115C16.8125 55.8601 14.8408 55.4345 13.8881 53.9611L10.4384 48.6244C9.48579 47.1507 9.91306 45.1865 11.3927 44.2376L12.5424 46.0167Z" fill="white"/>
<path d="M14.9646 41.9469C16.4442 40.9982 18.4159 41.4238 19.3685 42.8974L22.8187 48.234C23.7711 49.7077 23.344 51.672 21.8644 52.6208L20.7142 50.8417C21.2073 50.5255 21.3498 49.8709 21.0325 49.3797L17.5828 44.043C17.2653 43.5518 16.6075 43.4097 16.1143 43.726L14.9646 41.9469Z" fill="white"/>
<path d="M12.9966 35.948C13.5815 35.9057 14.0906 36.3441 14.1332 36.9267L14.5956 43.2568C14.638 43.8392 14.1983 44.3462 13.6135 44.3888C13.0285 44.4312 12.5196 43.9932 12.4769 43.4106L12.0145 37.08C11.9719 36.4973 12.4116 35.9904 12.9966 35.948Z" fill="white"/>
<path d="M10.3768 29.2438C9.79181 29.2862 9.35222 29.7927 9.39465 30.3753L9.85704 36.7059C9.89973 37.2885 10.4087 37.727 10.9936 37.6846L11.1476 39.7943C9.39259 39.9215 7.86626 38.6077 7.73835 36.8598L7.27596 30.5292C7.14823 28.7811 8.46765 27.2608 10.2228 27.1336L10.3768 29.2438Z" fill="white"/>
<path d="M14.4602 26.8264C16.2152 26.6994 17.7417 28.0135 17.8694 29.7614L18.3318 36.0921C18.4593 37.8399 17.1399 39.3603 15.385 39.4876L15.231 37.3774C15.8158 37.3349 16.2556 36.8279 16.2131 36.2454L15.7507 29.9148C15.7081 29.3322 15.1991 28.8943 14.6141 28.9366L14.4602 26.8264Z" fill="white"/>
<path d="M12.157 21.7719C12.7736 21.7399 13.2996 22.2121 13.3318 22.8262L13.6806 29.4988C13.7126 30.1129 13.2387 30.6364 12.6221 30.6684C12.0056 30.7003 11.4795 30.2287 11.4473 29.6146L11.0985 22.942C11.0664 22.3279 11.5404 21.804 12.157 21.7719Z" fill="white"/>
<path d="M22.3607 0C23.5956 0 24.5967 0.99711 24.5967 2.22711V22.2711C24.5967 23.5011 23.5956 24.4982 22.3607 24.4982H14.5929L14.5192 22.8257C14.4649 21.5969 13.4207 20.6446 12.187 20.6986C10.9533 20.7526 9.99715 21.7926 10.0514 23.0214L10.1164 24.4982H2.23607C1.00112 24.4982 0 23.5011 0 22.2711V2.22711C0 0.99711 1.00112 0 2.23607 0H22.3607Z" fill="white"/>
<path fill-rule="evenodd" clip-rule="evenodd" d="M417.234 55.7002C416.301 55.9002 415.034 56.2665 413.435 56.7998C411.901 57.3331 410.501 57.9 409.234 58.5C408.396 58.8531 407.836 59.1495 407.553 59.3857C407.579 59.4571 407.609 59.5276 407.635 59.5996C408.768 62.7329 409.334 66.2 409.334 70C409.334 73.9333 408.801 77.4333 407.734 80.5C406.734 83.4999 405.035 85.8333 402.635 87.5C400.301 89.1667 397.101 90 393.034 90C390.821 90 388.84 89.7256 387.091 89.1768C386.807 89.6038 386.488 90.1114 386.135 90.7002C385.535 91.6335 385.234 92.5667 385.234 93.5C385.234 94.2332 385.601 94.8332 386.334 95.2998C387.134 95.7665 388.368 96.0669 390.034 96.2002L399.734 97.0996C404.268 97.4996 407.634 98.8669 409.834 101.2C412.034 103.534 413.135 106.867 413.135 111.2C413.135 114.4 412.367 117.1 410.834 119.3C409.367 121.5 407.135 123.134 404.135 124.2C401.135 125.333 397.301 125.9 392.635 125.9C389.101 125.9 385.901 125.5 383.034 124.7C380.234 123.967 378.001 122.8 376.334 121.2C374.734 119.6 373.935 117.5 373.935 114.9C373.935 112.9 374.401 111.133 375.334 109.6C376.267 108.133 377.468 106.866 378.935 105.8C380.004 105.022 381.11 104.369 382.25 103.84C380.579 103.401 379.273 102.688 378.334 101.7C377.067 100.367 376.435 98.8998 376.435 97.2998C376.435 94.8999 377.101 92.8668 378.435 91.2002C379.552 89.8702 380.967 88.4138 382.679 86.8291C380.591 85.1526 379.008 82.9442 377.935 80.2002C376.801 77.1336 376.234 73.6334 376.234 69.7002C376.234 65.2335 376.868 61.5 378.135 58.5C379.401 55.4334 381.268 53.1329 383.734 51.5996C386.268 49.9997 389.368 49.2002 393.034 49.2002C396.834 49.2002 399.934 50.1665 402.334 52.0996C403.442 52.9613 404.413 53.9601 405.251 55.0918C405.893 54.2748 406.954 53.3109 408.435 52.2002C410.301 50.8002 412.301 49.6335 414.435 48.7002L417.234 55.7002ZM387.826 104.668C387.211 105.261 386.614 105.872 386.034 106.5C385.234 107.3 384.567 108.133 384.034 109C383.501 109.933 383.234 110.933 383.234 112C383.234 113.733 383.968 115.034 385.435 115.9C386.968 116.767 389.668 117.2 393.534 117.2C397.334 117.2 400.135 116.733 401.935 115.8C403.801 114.933 404.734 113.533 404.734 111.6C404.734 110.4 404.501 109.4 404.034 108.6C403.568 107.867 402.768 107.266 401.635 106.8C400.501 106.333 398.868 106 396.734 105.8L387.826 104.668ZM393.135 56.7998C391.668 56.7998 390.468 57.1002 389.534 57.7002C388.668 58.2335 387.968 59.067 387.435 60.2002C386.968 61.2668 386.635 62.6002 386.435 64.2002C386.301 65.8002 386.234 67.6336 386.234 69.7002C386.234 71.5001 386.301 73.1669 386.435 74.7002C386.635 76.2334 386.968 77.5669 387.435 78.7002C387.901 79.8334 388.568 80.7338 389.435 81.4004C390.368 82.0002 391.568 82.2998 393.034 82.2998C394.501 82.2998 395.668 82.0333 396.534 81.5C397.401 80.9 398.035 80.0667 398.435 79C398.901 77.9333 399.201 76.6329 399.334 75.0996C399.534 73.4997 399.635 71.7 399.635 69.7002C399.635 67.7002 399.568 65.8998 399.435 64.2998C399.301 62.6999 399.001 61.3664 398.534 60.2998C398.068 59.1666 397.401 58.3002 396.534 57.7002C395.668 57.1003 394.535 56.7999 393.135 56.7998Z" fill="white"/>
<path d="M175.8 26.0996C180.866 26.0996 184.866 27.0337 187.8 28.9004C190.8 30.7671 192.934 33.4337 194.2 36.9004C195.533 40.367 196.2 44.5339 196.2 49.4004V55.7998H185.5V50.0996C185.5 47.0999 185.333 44.4667 185 42.2002C184.733 39.8669 183.933 38.0665 182.6 36.7998C181.266 35.5334 179.033 34.9004 175.9 34.9004C172.701 34.9004 170.367 35.6001 168.9 37C167.434 38.3333 166.467 40.2666 166 42.7998C165.6 45.2665 165.4 48.1667 165.4 51.5V83.5996C165.4 87.6662 165.734 90.8998 166.4 93.2998C167.067 95.6331 168.167 97.2998 169.7 98.2998C171.234 99.2998 173.3 99.7998 175.9 99.7998C178.967 99.7998 181.167 99.1331 182.5 97.7998C183.833 96.3998 184.667 94.4996 185 92.0996C185.333 89.6997 185.5 86.8999 185.5 83.7002V77.7002H196.2V83.7002C196.2 88.6333 195.6 92.9999 194.4 96.7998C193.2 100.533 191.133 103.466 188.2 105.6C185.267 107.666 181.133 108.7 175.8 108.7C170.067 108.7 165.6 107.5 162.4 105.1C159.267 102.7 157.066 99.4669 155.8 95.4004C154.6 91.3337 154 86.7998 154 81.7998V53.2002C154 47.7337 154.6 42.967 155.8 38.9004C157.066 34.8337 159.267 31.7 162.4 29.5C165.6 27.2335 170.067 26.0996 175.8 26.0996Z" fill="white"/>
<path fill-rule="evenodd" clip-rule="evenodd" d="M225.965 49.2002C230.231 49.2002 233.565 50.0665 235.965 51.7998C238.432 53.5331 240.165 56.0002 241.165 59.2002C242.232 62.4001 242.765 66.1668 242.765 70.5V87.2998C242.765 91.633 242.232 95.3997 241.165 98.5996C240.165 101.8 238.432 104.267 235.965 106C233.565 107.733 230.232 108.6 225.965 108.6C221.698 108.6 218.332 107.733 215.865 106C213.399 104.267 211.631 101.8 210.564 98.5996C209.565 95.3997 209.064 91.6329 209.064 87.2998V70.5C209.064 66.1668 209.565 62.4001 210.564 59.2002C211.631 56.0002 213.399 53.5331 215.865 51.7998C218.332 50.0666 221.698 49.2002 225.965 49.2002ZM225.965 57.0996C223.898 57.0996 222.431 57.7333 221.564 59C220.698 60.2 220.165 61.767 219.965 63.7002C219.832 65.6335 219.765 67.7005 219.765 69.9004V88C219.765 90.1333 219.832 92.2002 219.965 94.2002C220.165 96.1334 220.698 97.7004 221.564 98.9004C222.431 100.1 223.898 100.7 225.965 100.7C228.031 100.7 229.465 100.1 230.265 98.9004C231.131 97.7004 231.631 96.1334 231.765 94.2002C231.965 92.2002 232.064 90.1333 232.064 88V69.9004C232.064 67.7005 231.965 65.6335 231.765 63.7002C231.631 61.7669 231.131 60.2 230.265 59C229.465 57.7334 228.031 57.0996 225.965 57.0996Z" fill="white"/>
<path fill-rule="evenodd" clip-rule="evenodd" d="M271.346 49.2002C277.079 49.2003 281.145 50.7671 283.545 53.9004C285.945 57.0337 287.146 61.5667 287.146 67.5V93.9004C287.146 95.7001 287.178 97.4332 287.245 99.0996C287.378 100.766 287.512 102.333 287.646 103.8C287.845 105.2 288.012 106.533 288.146 107.8H278.346C278.146 106.733 277.878 105.4 277.545 103.8C277.278 102.133 277.079 100.633 276.945 99.2998C276.279 101.566 274.978 103.7 273.045 105.7C271.178 107.633 268.578 108.6 265.245 108.6C262.979 108.6 260.978 107.967 259.245 106.7C257.512 105.367 256.145 103.7 255.146 101.7C254.146 99.6336 253.646 97.4668 253.646 95.2002C253.646 91.6002 254.245 88.5663 255.445 86.0996C256.645 83.6331 258.279 81.567 260.346 79.9004C262.479 78.1671 264.912 76.667 267.646 75.4004C270.445 74.1337 273.379 72.9002 276.445 71.7002V67.5996C276.445 65.2665 276.312 63.3331 276.045 61.7998C275.778 60.2668 275.212 59.1337 274.346 58.4004C273.546 57.6004 272.312 57.2002 270.646 57.2002C269.179 57.2002 267.978 57.5335 267.045 58.2002C266.179 58.8668 265.545 59.8333 265.146 61.0996C264.746 62.2996 264.545 63.7337 264.545 65.4004V68.2998L253.945 67.9004C254.079 61.5004 255.546 56.7998 258.346 53.7998C261.146 50.7333 265.479 49.2002 271.346 49.2002ZM276.445 78.2002C274.779 79.1335 273.212 80.0667 271.745 81C270.279 81.9333 268.979 82.9334 267.846 84C266.779 85 265.912 86.1667 265.245 87.5C264.645 88.7666 264.346 90.2338 264.346 91.9004C264.346 94.2335 264.779 96.0671 265.646 97.4004C266.512 98.7335 267.779 99.4004 269.445 99.4004C270.512 99.4004 271.512 99.1 272.445 98.5C273.379 97.9 274.212 97.2333 274.945 96.5C275.679 95.7 276.179 95.0663 276.445 94.5996V78.2002Z" fill="white"/>
<path d="M314.863 49.2002C319.663 49.2002 323.33 50.7002 325.863 53.7002C328.397 56.6335 329.864 60.2004 330.264 64.4004L322.663 67.0996C322.396 65.0999 321.996 63.3669 321.463 61.9004C320.93 60.3671 320.163 59.2004 319.163 58.4004C318.163 57.5338 316.863 57.0997 315.264 57.0996C313.53 57.0996 312.13 57.7004 311.063 58.9004C310.064 60.0337 309.563 61.4001 309.563 63C309.563 64 309.763 65 310.163 66C310.63 66.9332 311.396 67.8666 312.463 68.7998L322.663 78.2002C324.063 79.4669 325.363 80.8332 326.563 82.2998C327.83 83.7664 328.863 85.4332 329.663 87.2998C330.463 89.1664 330.863 91.3332 330.863 93.7998C330.863 97.0665 330.197 99.8 328.863 102C327.53 104.2 325.664 105.867 323.264 107C320.864 108.067 318.063 108.6 314.863 108.6C310.13 108.6 306.33 107.134 303.463 104.2C300.596 101.2 298.964 97.2668 298.563 92.4004L307.463 89.7002C307.996 93.3667 308.896 96.1334 310.163 98C311.43 99.8 313.297 100.7 315.764 100.7C317.697 100.7 319.163 100.166 320.163 99.0996C321.163 97.9663 321.663 96.4662 321.663 94.5996C321.663 92.9331 321.297 91.4328 320.563 90.0996C319.83 88.7663 318.629 87.3999 316.963 86L307.063 77.5C305.063 75.7667 303.363 73.8335 301.963 71.7002C300.63 69.567 299.963 66.8002 299.963 63.4004C299.963 60.3337 300.564 57.7669 301.764 55.7002C303.03 53.567 304.763 51.9671 306.963 50.9004C309.23 49.7671 311.863 49.2002 314.863 49.2002Z" fill="white"/>
<path d="M356.466 50H365.766V57.0996H356.466V94.0996C356.466 96.3662 356.832 98 357.565 99C358.299 99.9333 359.699 100.4 361.766 100.4C362.299 100.4 362.899 100.366 363.565 100.3C364.299 100.233 364.999 100.166 365.666 100.1V108C364.333 108.2 363.099 108.334 361.966 108.4C360.832 108.534 359.599 108.6 358.266 108.6C355.266 108.6 352.832 108.034 350.966 106.9C349.166 105.767 347.832 104.166 346.966 102.1C346.166 100.033 345.766 97.5997 345.766 94.7998V57.0996H339.666V50H345.766V33.0996H356.466V50Z" fill="white"/>
<path d="M435.678 93.5996C435.678 95.6662 435.977 97.3 436.577 98.5C437.177 99.6333 438.411 100.2 440.277 100.2C441.477 100.2 442.711 99.8669 443.978 99.2002C445.311 98.4669 446.577 97.5996 447.777 96.5996V50H458.478V107.8H447.777V102.1C445.911 103.9 443.777 105.434 441.377 106.7C439.044 107.967 436.477 108.6 433.678 108.6C431.411 108.6 429.644 108 428.377 106.8C427.11 105.6 426.211 104.1 425.678 102.3C425.211 100.5 424.978 98.6664 424.978 96.7998V50H435.678V93.5996Z" fill="white"/>
<path fill-rule="evenodd" clip-rule="evenodd" d="M488.221 49.2002C493.954 49.2003 498.02 50.7671 500.42 53.9004C502.82 57.0337 504.021 61.5667 504.021 67.5V93.9004C504.021 95.7001 504.053 97.4332 504.12 99.0996C504.253 100.766 504.387 102.333 504.521 103.8C504.72 105.2 504.887 106.533 505.021 107.8H495.221C495.021 106.733 494.753 105.4 494.42 103.8C494.153 102.133 493.954 100.633 493.82 99.2998C493.154 101.566 491.853 103.7 489.92 105.7C488.053 107.633 485.453 108.6 482.12 108.6C479.854 108.6 477.853 107.967 476.12 106.7C474.387 105.367 473.02 103.7 472.021 101.7C471.021 99.6336 470.521 97.4668 470.521 95.2002C470.521 91.6002 471.12 88.5663 472.32 86.0996C473.52 83.6331 475.154 81.567 477.221 79.9004C479.354 78.1671 481.787 76.6671 484.521 75.4004C487.32 74.1337 490.254 72.9002 493.32 71.7002V67.5996C493.32 65.2665 493.187 63.3331 492.92 61.7998C492.653 60.2668 492.087 59.1337 491.221 58.4004C490.421 57.6004 489.187 57.2002 487.521 57.2002C486.054 57.2002 484.853 57.5335 483.92 58.2002C483.054 58.8668 482.42 59.8333 482.021 61.0996C481.621 62.2996 481.42 63.7337 481.42 65.4004V68.2998L470.82 67.9004C470.954 61.5004 472.421 56.7998 475.221 53.7998C478.021 50.7333 482.354 49.2002 488.221 49.2002ZM493.32 78.2002C491.654 79.1335 490.087 80.0667 488.62 81C487.154 81.9333 485.854 82.9334 484.721 84C483.654 85 482.787 86.1667 482.12 87.5C481.52 88.7666 481.221 90.2338 481.221 91.9004C481.221 94.2335 481.654 96.0671 482.521 97.4004C483.387 98.7335 484.654 99.4004 486.32 99.4004C487.387 99.4004 488.387 99.1 489.32 98.5C490.254 97.9 491.087 97.2333 491.82 96.5C492.554 95.7 493.054 95.0663 493.32 94.5996V78.2002Z" fill="white"/>
<path fill-rule="evenodd" clip-rule="evenodd" d="M587.574 107.8H576.874V104.1C575.607 105.433 574.207 106.534 572.674 107.4C571.207 108.2 569.507 108.6 567.574 108.6C562.708 108.6 559.074 106.833 556.674 103.3C554.274 99.6998 553.074 93.6327 553.074 85.0996V73.9004C553.074 69.5005 553.441 65.4335 554.174 61.7002C554.907 57.9002 556.274 54.8663 558.274 52.5996C560.341 50.3331 563.341 49.2002 567.274 49.2002C569.208 49.2002 570.974 49.6334 572.574 50.5C574.174 51.3667 575.607 52.4335 576.874 53.7002V26.7998H587.574V107.8ZM570.074 57.5996C567.608 57.5996 565.941 58.8002 565.074 61.2002C564.208 63.5335 563.774 66.3669 563.774 69.7002V86C563.774 88.6666 563.907 91.0999 564.174 93.2998C564.507 95.4331 565.141 97.1337 566.074 98.4004C567.008 99.6002 568.408 100.2 570.274 100.2C571.274 100.2 572.341 100.034 573.475 99.7002C574.608 99.3002 575.741 98.7332 576.874 98V60.0996C575.941 59.4331 574.908 58.867 573.774 58.4004C572.641 57.8671 571.408 57.5996 570.074 57.5996Z" fill="white"/>
<path d="M542.838 49.2998C543.104 49.2998 543.438 49.3338 543.838 49.4004V61.2002C543.038 60.8669 542.105 60.6004 541.038 60.4004C540.038 60.1338 539.005 60 537.938 60C536.272 60 534.738 60.4002 533.338 61.2002C532.005 61.9336 530.671 63.3999 529.338 65.5996V107.8H518.639V50H529.338V58.2002C531.471 54.6669 533.605 52.2996 535.738 51.0996C537.872 49.8997 540.005 49.2998 542.139 49.2998H542.838Z" fill="white"/>
</svg>
