<svg width="258" height="338" viewBox="0 0 258 338" fill="none" xmlns="http://www.w3.org/2000/svg">
<path fill-rule="evenodd" clip-rule="evenodd" d="M138.381 109.438C141.838 110.592 145.069 112.407 147.883 114.813C151.646 118.031 154.482 122.152 156.157 126.75H153.628C148.446 126.75 144.246 130.954 144.246 136.139C144.246 141.324 148.447 145.528 153.628 145.528H156.438C155.757 147.588 154.841 149.578 153.694 151.455C150.151 157.256 144.659 161.601 138.205 163.708V178.623L169.141 181.418C170.582 179.098 172.738 177.31 175.283 176.327C177.828 175.344 180.625 175.218 183.247 175.968C185.87 176.719 188.177 178.306 189.82 180.487C191.462 182.669 192.351 185.327 192.351 188.06C192.351 190.792 191.462 193.45 189.82 195.631C188.177 197.812 185.87 199.399 183.247 200.15C180.625 200.9 177.828 200.774 175.283 199.791C172.738 198.808 170.582 197.02 169.141 194.7L138.263 197.496L139.147 216.427C139.147 229.709 139.441 241.652 139.736 254.993C139.621 260.466 140.603 261.713 142.624 266.798C144.33 270.538 147.079 273.704 150.539 275.914C154 278.124 158.025 279.284 162.129 279.254C182.812 279.254 187.528 275.712 209.802 255.641L213.573 251.922C213.814 251.688 213.972 251.382 214.022 251.051C214.073 250.719 214.013 250.379 213.853 250.085C213.692 249.79 213.439 249.556 213.133 249.419C212.828 249.282 212.485 249.248 212.159 249.325L201.552 251.922C201.269 251.986 200.973 251.969 200.7 251.871C200.426 251.774 200.186 251.6 200.007 251.372C199.828 251.143 199.717 250.868 199.688 250.579C199.659 250.29 199.713 249.998 199.843 249.738C208.226 235.41 221.526 224.625 237.261 219.395C237.474 219.324 237.701 219.301 237.924 219.327C238.147 219.352 238.362 219.427 238.553 219.546C238.744 219.664 238.908 219.823 239.031 220.011C239.154 220.199 239.234 220.413 239.266 220.635C240.326 227.602 242.918 253.458 233.49 267.448C233.36 267.695 233.165 267.902 232.927 268.046C232.688 268.19 232.414 268.266 232.135 268.266C231.857 268.266 231.583 268.19 231.344 268.046C231.105 267.902 230.909 267.695 230.779 267.448C229.895 265.205 228.599 261.899 227.538 259.302C227.422 259.022 227.226 258.782 226.975 258.614C226.723 258.446 226.426 258.357 226.124 258.357C225.822 258.357 225.526 258.446 225.274 258.614C225.023 258.782 224.827 259.022 224.711 259.302C221.352 268.983 209.27 293.185 168.317 311.249C166.897 311.782 137.673 321.936 130.485 337.046C130.344 337.332 130.125 337.574 129.855 337.742C129.584 337.91 129.271 338 128.952 338C128.634 338 128.322 337.91 128.051 337.742C127.781 337.574 127.561 337.333 127.42 337.046C120.29 321.935 91.0664 311.781 89.5894 311.249C48.6944 293.185 36.5539 268.983 33.2538 259.302C33.1479 259.003 32.9522 258.744 32.6938 258.561C32.4355 258.379 32.1268 258.281 31.8108 258.28C31.4946 258.281 31.185 258.379 30.9267 258.561C30.6684 258.744 30.4725 259.003 30.3666 259.302L27.1256 267.448C27.0616 267.715 26.9272 267.961 26.7362 268.159C26.5451 268.356 26.3037 268.499 26.0388 268.571C25.7739 268.644 25.4938 268.643 25.2291 268.57C24.9645 268.497 24.7234 268.354 24.5328 268.156C15.1046 253.753 17.6977 227.896 18.6405 220.93C18.6639 220.71 18.737 220.497 18.8535 220.309C18.9701 220.121 19.1274 219.96 19.3139 219.841C19.5006 219.722 19.7126 219.646 19.9323 219.62C20.1521 219.594 20.3759 219.619 20.5851 219.691C36.3778 224.834 49.7497 235.583 58.1811 249.915C58.311 250.175 58.3647 250.467 58.3357 250.756C58.3067 251.045 58.1952 251.321 58.0162 251.549C57.8372 251.778 57.5966 251.952 57.3233 252.049C57.0502 252.146 56.754 252.164 56.4713 252.099L45.8652 249.502C45.539 249.426 45.1952 249.458 44.8894 249.595C44.584 249.732 44.3318 249.967 44.1714 250.261C44.011 250.556 43.9515 250.896 44.0019 251.227C44.0524 251.559 44.2101 251.866 44.4508 252.099L48.1041 255.641C70.3785 275.712 75.0935 279.254 95.8355 279.254C99.9325 279.287 103.952 278.128 107.404 275.917C110.855 273.706 113.593 270.538 115.282 266.798C117.321 261.717 118.324 260.47 118.228 254.993C118.464 241.652 118.759 229.768 118.759 216.427L119.642 197.496L88.8232 194.7C87.3825 197.02 85.2262 198.808 82.6813 199.791C80.1364 200.774 77.3399 200.9 74.7173 200.15C72.0947 199.399 69.7873 197.812 68.1447 195.631C66.5024 193.45 65.6139 190.792 65.6137 188.06C65.6137 185.327 66.5023 182.669 68.1447 180.487C69.7873 178.306 72.0947 176.719 74.7173 175.968C77.3399 175.218 80.1364 175.344 82.6813 176.327C85.2262 177.31 87.3825 179.098 88.8232 181.418L120.526 178.623V163.708C114.072 161.601 108.579 157.256 105.036 151.455C103.89 149.578 102.974 147.588 102.292 145.528H105.545C110.726 145.528 114.927 141.324 114.927 136.139C114.927 130.954 110.726 126.75 105.545 126.75H102.574C104.249 122.152 107.085 118.031 110.847 114.813C113.462 112.578 116.437 110.853 119.618 109.694V112.667C119.618 117.852 123.818 122.055 128.999 122.056C134.181 122.055 138.381 117.852 138.381 112.667V109.438ZM133.522 125.469C131.369 124.575 128.998 124.342 126.712 124.797C124.427 125.253 122.326 126.377 120.678 128.028C119.03 129.679 117.908 131.784 117.453 134.074C116.998 136.364 117.231 138.738 118.123 140.895C119.015 143.052 120.526 144.896 122.464 146.194C124.401 147.491 126.681 148.183 129.012 148.183C132.137 148.183 135.135 146.939 137.345 144.726C139.555 142.511 140.798 139.507 140.798 136.376C140.798 134.041 140.106 131.758 138.811 129.817C137.516 127.876 135.675 126.362 133.522 125.469Z" fill="white"/>
<path d="M218.796 98.5157C220.129 96.2926 223.01 95.5717 225.231 96.9054C227.453 98.2393 228.173 101.122 226.84 103.345C212.897 126.602 187.782 140.833 160.681 140.833H153.627C151.037 140.833 148.936 138.732 148.936 136.139C148.936 133.546 151.037 131.444 153.627 131.444H160.681C184.487 131.444 206.548 118.945 218.796 98.5157Z" fill="white"/>
<path d="M248.618 35.2083C253.8 35.2083 258 39.4119 258 44.5972V96.2361C258 101.421 253.8 105.625 248.618 105.625H230.939C233.497 101.197 232.042 95.5212 227.644 92.8803C223.201 90.2127 217.44 91.6549 214.774 96.1009C212.722 99.5233 210.373 102.706 207.773 105.625H197.018C191.837 105.625 187.636 101.421 187.636 96.2361V44.5972C187.636 39.4119 191.837 35.2083 197.018 35.2083H248.618Z" fill="white"/>
<path d="M124.309 112.667V65.7222C124.309 63.1296 126.409 61.0278 129 61.0278C131.591 61.0278 133.691 63.1296 133.691 65.7222V112.667C133.691 115.259 131.591 117.361 129 117.361C126.409 117.361 124.309 115.259 124.309 112.667Z" fill="white"/>
<path d="M154.8 0C159.981 0 164.182 4.20355 164.182 9.38889V61.0278C164.182 66.2131 159.981 70.4167 154.8 70.4167H138.382V65.7222C138.382 60.5369 134.181 56.3333 129 56.3333C123.819 56.3333 119.618 60.5369 119.618 65.7222V70.4167H103.2C98.0186 70.4167 93.8182 66.2131 93.8182 61.0278V9.38889C93.8182 4.20355 98.0186 2.64637e-07 103.2 0H154.8Z" fill="white"/>
<path d="M32.7688 96.9054C34.9903 95.5717 37.871 96.2926 39.2039 98.5157C51.4521 118.945 73.5131 131.444 97.3192 131.444H105.545C108.136 131.444 110.236 133.546 110.236 136.139C110.236 138.732 108.136 140.833 105.545 140.833H97.3192C70.2175 140.833 45.1034 126.602 31.1597 103.345C29.8269 101.122 30.5473 98.2393 32.7688 96.9054Z" fill="white"/>
<path d="M60.9818 35.2083C66.1633 35.2083 70.3636 39.4119 70.3636 44.5972V96.2361C70.3636 101.421 66.1633 105.625 60.9818 105.625H50.228C47.6281 102.706 45.2791 99.5233 43.2271 96.1009C40.6448 91.7938 35.1561 90.3055 30.7761 92.6419L30.3558 92.8803C25.9577 95.5212 24.5035 101.197 27.0609 105.625H9.38182C4.20038 105.625 2.64446e-07 101.421 0 96.2361V44.5972C0 39.4119 4.20038 35.2083 9.38182 35.2083H60.9818Z" fill="white"/>
<path d="M31.5319 97.9805C31.58 97.921 31.6296 97.8613 31.6808 97.804C31.6993 97.7832 31.718 97.7626 31.7369 97.7421C31.6655 97.8193 31.5975 97.8992 31.5319 97.9805Z" fill="white"/>
<path d="M31.7804 97.6963C31.7998 97.6759 31.8191 97.6555 31.8389 97.6355L32.0072 97.4739C31.9288 97.5458 31.8531 97.6198 31.7804 97.6963Z" fill="white"/>
</svg>
