<svg width="725" height="168" viewBox="0 0 725 168" fill="none" xmlns="http://www.w3.org/2000/svg">
<path d="M693.873 141.4C686.475 141.4 680.953 138.715 677.305 133.344C673.657 127.872 671.833 118.651 671.833 105.68V88.656C671.833 81.968 672.39 75.7867 673.505 70.112C674.619 64.336 676.697 59.7253 679.737 56.28C682.878 52.8347 687.438 51.112 693.417 51.112C696.355 51.112 699.041 51.7707 701.473 53.088C703.905 54.4053 706.083 56.0267 708.009 57.952V17.064H724.273V140.184H708.009V134.56C706.083 136.587 703.955 138.259 701.625 139.576C699.395 140.792 696.811 141.4 693.873 141.4ZM697.977 128.632C699.497 128.632 701.118 128.379 702.841 127.872C704.563 127.264 706.286 126.403 708.009 125.288V67.68C706.59 66.6667 705.019 65.8053 703.297 65.096C701.574 64.2853 699.699 63.88 697.673 63.88C693.923 63.88 691.39 65.704 690.073 69.352C688.755 72.8987 688.097 77.2053 688.097 82.272V107.048C688.097 111.101 688.299 114.8 688.705 118.144C689.212 121.387 690.174 123.971 691.593 125.896C693.012 127.72 695.139 128.632 697.977 128.632Z" fill="white"/>
<path d="M630.13 140.184V52.328H646.394V64.792C649.637 59.4213 652.88 55.824 656.122 54C659.365 52.176 662.608 51.264 665.85 51.264C666.256 51.264 666.61 51.264 666.914 51.264C667.32 51.264 667.826 51.3147 668.434 51.416V69.352C667.218 68.8453 665.8 68.44 664.178 68.136C662.658 67.7307 661.088 67.528 659.466 67.528C656.933 67.528 654.602 68.136 652.474 69.352C650.448 70.4667 648.421 72.696 646.394 76.04V140.184H630.13Z" fill="white"/>
<path d="M585.263 141.4C581.818 141.4 578.778 140.437 576.143 138.512C573.508 136.485 571.431 133.952 569.911 130.912C568.391 127.771 567.631 124.477 567.631 121.032C567.631 115.56 568.543 110.949 570.367 107.2C572.191 103.451 574.674 100.309 577.815 97.776C581.058 95.1413 584.756 92.8613 588.911 90.936C593.167 89.0107 597.626 87.136 602.287 85.312V79.08C602.287 75.5333 602.084 72.5947 601.679 70.264C601.274 67.9333 600.412 66.2107 599.095 65.096C597.879 63.88 596.004 63.272 593.471 63.272C591.242 63.272 589.418 63.7787 587.999 64.792C586.682 65.8053 585.719 67.2747 585.111 69.2C584.503 71.024 584.199 73.2027 584.199 75.736V80.144L568.087 79.536C568.29 69.808 570.519 62.664 574.775 58.104C579.031 53.4427 585.618 51.112 594.535 51.112C603.25 51.112 609.431 53.4933 613.079 58.256C616.727 63.0187 618.551 69.9093 618.551 78.928V119.056C618.551 121.792 618.602 124.427 618.703 126.96C618.906 129.493 619.108 131.875 619.311 134.104C619.615 136.232 619.868 138.259 620.071 140.184H605.175C604.871 138.563 604.466 136.536 603.959 134.104C603.554 131.571 603.25 129.291 603.047 127.264C602.034 130.709 600.058 133.952 597.119 136.992C594.282 139.931 590.33 141.4 585.263 141.4ZM591.647 127.416C593.268 127.416 594.788 126.96 596.207 126.048C597.626 125.136 598.892 124.123 600.007 123.008C601.122 121.792 601.882 120.829 602.287 120.12V95.192C599.754 96.6107 597.372 98.0293 595.143 99.448C592.914 100.867 590.938 102.387 589.215 104.008C587.594 105.528 586.276 107.301 585.263 109.328C584.351 111.253 583.895 113.483 583.895 116.016C583.895 119.563 584.554 122.349 585.871 124.376C587.188 126.403 589.114 127.416 591.647 127.416Z" fill="white"/>
<path d="M522.27 141.4C518.824 141.4 516.139 140.488 514.214 138.664C512.288 136.84 510.92 134.56 510.11 131.824C509.4 129.088 509.046 126.301 509.046 123.464V52.328H525.31V118.6C525.31 121.741 525.766 124.224 526.678 126.048C527.59 127.771 529.464 128.632 532.302 128.632C534.126 128.632 536 128.125 537.926 127.112C539.952 125.997 541.878 124.68 543.702 123.16V52.328H559.966V140.184H543.702V131.52C540.864 134.256 537.622 136.587 533.974 138.512C530.427 140.437 526.526 141.4 522.27 141.4Z" fill="white"/>
<path d="M470.524 167.696C465.154 167.696 460.29 167.088 455.932 165.872C451.676 164.757 448.282 162.984 445.748 160.552C443.316 158.12 442.1 154.928 442.1 150.976C442.1 147.936 442.81 145.251 444.228 142.92C445.647 140.691 447.471 138.765 449.7 137.144C451.93 135.523 454.26 134.256 456.692 133.344L464.292 134.408C462.975 135.624 461.708 136.891 460.492 138.208C459.276 139.424 458.263 140.691 457.452 142.008C456.642 143.427 456.236 144.947 456.236 146.568C456.236 149.203 457.351 151.179 459.58 152.496C461.911 153.813 466.015 154.472 471.892 154.472C477.668 154.472 481.924 153.763 484.66 152.344C487.498 151.027 488.916 148.899 488.916 145.96C488.916 144.136 488.562 142.616 487.852 141.4C487.143 140.285 485.927 139.373 484.204 138.664C482.482 137.955 479.999 137.448 476.756 137.144L457.604 134.712C453.652 134.205 450.714 132.939 448.788 130.912C446.863 128.885 445.9 126.656 445.9 124.224C445.9 120.576 446.914 117.485 448.94 114.952C451.068 112.419 453.906 109.581 457.452 106.44L462.924 110.696C462.316 111.507 461.556 112.672 460.644 114.192C459.732 115.611 459.276 117.029 459.276 118.448C459.276 119.563 459.834 120.475 460.948 121.184C462.164 121.893 464.039 122.349 466.572 122.552L481.316 123.92C488.207 124.528 493.324 126.605 496.668 130.152C500.012 133.699 501.684 138.765 501.684 145.352C501.684 150.216 500.519 154.32 498.188 157.664C495.959 161.008 492.564 163.491 488.004 165.112C483.444 166.835 477.618 167.696 470.524 167.696ZM471.132 113.128C465.154 113.128 460.29 111.811 456.54 109.176C452.791 106.541 450.004 102.893 448.18 98.232C446.458 93.5707 445.596 88.2507 445.596 82.272C445.596 75.4827 446.559 69.808 448.484 65.248C450.41 60.5867 453.247 57.0907 456.996 54.76C460.847 52.328 465.559 51.112 471.132 51.112C476.908 51.112 481.62 52.5813 485.268 55.52C488.916 58.3573 491.602 62.1573 493.324 66.92C495.047 71.6827 495.908 76.952 495.908 82.728C495.908 88.7067 495.098 94.0267 493.476 98.688C491.956 103.248 489.372 106.795 485.724 109.328C482.178 111.861 477.314 113.128 471.132 113.128ZM471.132 101.424C473.362 101.424 475.135 101.019 476.452 100.208C477.77 99.296 478.732 98.0293 479.34 96.408C480.05 94.7867 480.506 92.8107 480.708 90.48C481.012 88.048 481.164 85.312 481.164 82.272C481.164 79.232 481.063 76.496 480.86 74.064C480.658 71.632 480.202 69.6053 479.492 67.984C478.783 66.2613 477.77 64.944 476.452 64.032C475.135 63.12 473.412 62.664 471.284 62.664C469.055 62.664 467.231 63.12 465.812 64.032C464.495 64.8427 463.431 66.1093 462.62 67.832C461.911 69.4533 461.404 71.48 461.1 73.912C460.898 76.344 460.796 79.1307 460.796 82.272C460.796 85.008 460.898 87.5413 461.1 89.872C461.404 92.2027 461.911 94.2293 462.62 95.952C463.33 97.6747 464.343 99.0427 465.66 100.056C467.079 100.968 468.903 101.424 471.132 101.424ZM492.868 67.072L489.068 60.992C489.879 59.5733 491.703 57.8 494.54 55.672C497.378 53.544 500.418 51.7707 503.66 50.352L507.916 60.992C506.498 61.296 504.572 61.8533 502.14 62.664C499.81 63.4747 497.682 64.336 495.756 65.248C493.831 66.0587 492.868 66.6667 492.868 67.072Z" fill="white"/>
<path d="M428.924 141.4C424.364 141.4 420.665 140.539 417.828 138.816C415.092 137.093 413.065 134.661 411.748 131.52C410.532 128.379 409.924 124.68 409.924 120.424V63.12H400.652V52.328H409.924V26.64H426.188V52.328H440.324V63.12H426.188V119.36C426.188 122.805 426.745 125.288 427.86 126.808C428.974 128.227 431.102 128.936 434.244 128.936C435.054 128.936 435.966 128.885 436.98 128.784C438.094 128.683 439.158 128.581 440.172 128.48V140.488C438.145 140.792 436.27 140.995 434.548 141.096C432.825 141.299 430.95 141.4 428.924 141.4Z" fill="white"/>
<path d="M373.592 141.4C366.398 141.4 360.622 139.171 356.264 134.712C351.907 130.152 349.424 124.173 348.816 116.776L362.344 112.672C363.155 118.245 364.523 122.451 366.448 125.288C368.374 128.024 371.211 129.392 374.96 129.392C377.899 129.392 380.128 128.581 381.648 126.96C383.168 125.237 383.928 122.957 383.928 120.12C383.928 117.587 383.371 115.307 382.256 113.28C381.142 111.253 379.318 109.176 376.784 107.048L361.736 94.128C358.696 91.4933 356.112 88.5547 353.984 85.312C351.958 82.0693 350.944 77.864 350.944 72.696C350.944 68.0347 351.856 64.1333 353.68 60.992C355.606 57.7493 358.24 55.3173 361.584 53.696C365.03 51.9733 369.032 51.112 373.592 51.112C380.888 51.112 386.462 53.392 390.312 57.952C394.163 62.4107 396.392 67.832 397 74.216L385.448 78.32C385.043 75.28 384.435 72.6453 383.624 70.416C382.814 68.0853 381.648 66.312 380.128 65.096C378.608 63.7787 376.632 63.12 374.2 63.12C371.566 63.12 369.438 64.032 367.816 65.856C366.296 67.5787 365.536 69.656 365.536 72.088C365.536 73.608 365.84 75.128 366.448 76.648C367.158 78.0667 368.323 79.4853 369.944 80.904L385.448 95.192C387.576 97.1173 389.552 99.1947 391.376 101.424C393.302 103.653 394.872 106.187 396.088 109.024C397.304 111.861 397.912 115.155 397.912 118.904C397.912 123.869 396.899 128.024 394.872 131.368C392.846 134.712 390.008 137.245 386.36 138.968C382.712 140.589 378.456 141.4 373.592 141.4Z" fill="white"/>
<path d="M308.813 141.4C305.368 141.4 302.328 140.437 299.693 138.512C297.058 136.485 294.981 133.952 293.461 130.912C291.941 127.771 291.181 124.477 291.181 121.032C291.181 115.56 292.093 110.949 293.917 107.2C295.741 103.451 298.224 100.309 301.365 97.776C304.608 95.1413 308.306 92.8613 312.461 90.936C316.717 89.0107 321.176 87.136 325.837 85.312V79.08C325.837 75.5333 325.634 72.5947 325.229 70.264C324.824 67.9333 323.962 66.2107 322.645 65.096C321.429 63.88 319.554 63.272 317.021 63.272C314.792 63.272 312.968 63.7787 311.549 64.792C310.232 65.8053 309.269 67.2747 308.661 69.2C308.053 71.024 307.749 73.2027 307.749 75.736V80.144L291.637 79.536C291.84 69.808 294.069 62.664 298.325 58.104C302.581 53.4427 309.168 51.112 318.085 51.112C326.8 51.112 332.981 53.4933 336.629 58.256C340.277 63.0187 342.101 69.9093 342.101 78.928V119.056C342.101 121.792 342.152 124.427 342.253 126.96C342.456 129.493 342.658 131.875 342.861 134.104C343.165 136.232 343.418 138.259 343.621 140.184H328.725C328.421 138.563 328.016 136.536 327.509 134.104C327.104 131.571 326.8 129.291 326.597 127.264C325.584 130.709 323.608 133.952 320.669 136.992C317.832 139.931 313.88 141.4 308.813 141.4ZM315.197 127.416C316.818 127.416 318.338 126.96 319.757 126.048C321.176 125.136 322.442 124.123 323.557 123.008C324.672 121.792 325.432 120.829 325.837 120.12V95.192C323.304 96.6107 320.922 98.0293 318.693 99.448C316.464 100.867 314.488 102.387 312.765 104.008C311.144 105.528 309.826 107.301 308.813 109.328C307.901 111.253 307.445 113.483 307.445 116.016C307.445 119.563 308.104 122.349 309.421 124.376C310.738 126.403 312.664 127.416 315.197 127.416Z" fill="white"/>
<path d="M259.747 141.4C253.261 141.4 248.144 140.083 244.395 137.448C240.645 134.813 237.96 131.064 236.339 126.2C234.819 121.336 234.059 115.611 234.059 109.024V83.488C234.059 76.9013 234.819 71.176 236.339 66.312C237.96 61.448 240.645 57.6987 244.395 55.064C248.144 52.4293 253.261 51.112 259.747 51.112C266.232 51.112 271.299 52.4293 274.947 55.064C278.696 57.6987 281.331 61.448 282.851 66.312C284.472 71.176 285.283 76.9013 285.283 83.488V109.024C285.283 115.611 284.472 121.336 282.851 126.2C281.331 131.064 278.696 134.813 274.947 137.448C271.299 140.083 266.232 141.4 259.747 141.4ZM259.747 129.392C262.888 129.392 265.067 128.48 266.283 126.656C267.6 124.832 268.36 122.451 268.563 119.512C268.867 116.472 269.019 113.331 269.019 110.088V82.576C269.019 79.232 268.867 76.0907 268.563 73.152C268.36 70.2133 267.6 67.832 266.283 66.008C265.067 64.0827 262.888 63.12 259.747 63.12C256.605 63.12 254.376 64.0827 253.059 66.008C251.741 67.832 250.931 70.2133 250.627 73.152C250.424 76.0907 250.323 79.232 250.323 82.576V110.088C250.323 113.331 250.424 116.472 250.627 119.512C250.931 122.451 251.741 124.832 253.059 126.656C254.376 128.48 256.605 129.392 259.747 129.392Z" fill="white"/>
<path d="M194.136 141.552C185.421 141.552 178.632 139.728 173.768 136.08C169.005 132.432 165.661 127.517 163.736 121.336C161.912 115.155 161 108.264 161 100.664V57.192C161 48.8827 161.912 41.6373 163.736 35.456C165.661 29.2747 169.005 24.512 173.768 21.168C178.632 17.7227 185.421 16 194.136 16C201.837 16 207.917 17.4187 212.376 20.256C216.936 23.0933 220.179 27.1467 222.104 32.416C224.131 37.6853 225.144 44.0187 225.144 51.416V61.144H208.88V52.48C208.88 47.92 208.627 43.9173 208.12 40.472C207.715 36.9253 206.499 34.1893 204.472 32.264C202.445 30.3387 199.051 29.376 194.288 29.376C189.424 29.376 185.877 30.44 183.648 32.568C181.419 34.5947 179.949 37.5333 179.24 41.384C178.632 45.1333 178.328 49.5413 178.328 54.608V103.4C178.328 109.581 178.835 114.496 179.848 118.144C180.861 121.691 182.533 124.224 184.864 125.744C187.195 127.264 190.336 128.024 194.288 128.024C198.949 128.024 202.293 127.011 204.32 124.984C206.347 122.856 207.613 119.968 208.12 116.32C208.627 112.672 208.88 108.416 208.88 103.552V94.432H225.144V103.552C225.144 111.051 224.232 117.688 222.408 123.464C220.584 129.139 217.443 133.597 212.984 136.84C208.525 139.981 202.243 141.552 194.136 141.552Z" fill="white"/>
<path fill-rule="evenodd" clip-rule="evenodd" d="M65.4361 51.805C67.0705 52.3512 68.5987 53.2104 69.9293 54.3495C71.7084 55.8726 73.0495 57.8235 73.8415 60H72.6457C70.1956 60 68.2094 61.9899 68.2094 64.4444C68.2094 66.899 70.1956 68.8889 72.6457 68.8889H73.9747C73.6526 69.8642 73.2192 70.8064 72.6771 71.6949C71.0018 74.4407 68.4045 76.4974 65.3527 77.4951V84.5551L79.9815 85.8784C80.6628 84.7801 81.6825 83.9339 82.8859 83.4684C84.0892 83.0031 85.4116 82.9434 86.6518 83.2986C87.8919 83.6539 88.983 84.4053 89.7597 85.4378C90.5364 86.4704 90.9566 87.7289 90.9566 89.0224C90.9565 90.3157 90.5364 91.5738 89.7597 92.6063C88.983 93.6389 87.8919 94.3903 86.6518 94.7456C85.4116 95.1007 84.0892 95.0411 82.8859 94.5757C81.6825 94.1103 80.6628 93.2641 79.9815 92.1658L65.3803 93.489L65.7984 102.451C65.7984 108.738 65.9374 114.392 66.0767 120.707C66.0221 123.297 66.4868 123.888 67.4425 126.295C68.2489 128.065 69.5488 129.564 71.1852 130.61C72.8216 131.656 74.7251 132.205 76.6656 132.191C86.4461 132.191 88.6758 130.514 99.2087 121.013L100.992 119.253C101.106 119.142 101.18 118.998 101.204 118.841C101.228 118.684 101.2 118.523 101.124 118.383C101.048 118.244 100.929 118.133 100.784 118.068C100.639 118.003 100.477 117.987 100.323 118.024L95.3074 119.253C95.1736 119.283 95.0337 119.275 94.9044 119.229C94.7752 119.183 94.6614 119.101 94.5768 118.993C94.4923 118.884 94.44 118.754 94.4263 118.617C94.4126 118.48 94.438 118.342 94.4994 118.219C98.4635 111.437 104.753 106.331 112.193 103.856C112.294 103.822 112.401 103.811 112.507 103.823C112.612 103.835 112.714 103.871 112.804 103.927C112.895 103.983 112.972 104.058 113.03 104.147C113.088 104.236 113.126 104.337 113.141 104.443C113.643 107.74 114.868 119.98 110.41 126.603C110.349 126.719 110.256 126.818 110.144 126.886C110.031 126.954 109.901 126.99 109.769 126.99C109.638 126.99 109.508 126.954 109.395 126.886C109.282 126.818 109.19 126.72 109.128 126.603C108.71 125.541 108.097 123.976 107.596 122.746C107.541 122.614 107.448 122.5 107.329 122.421C107.21 122.341 107.07 122.299 106.927 122.299C106.784 122.299 106.644 122.341 106.525 122.421C106.406 122.5 106.314 122.614 106.259 122.746C104.67 127.329 98.9573 138.786 79.5916 147.337C78.9202 147.589 65.1013 152.396 61.7021 159.549C61.6354 159.684 61.5322 159.798 61.4043 159.878C61.2763 159.958 61.1281 160 60.9775 160C60.827 160 60.6792 159.958 60.5513 159.878C60.4234 159.798 60.3197 159.684 60.2529 159.549C56.8814 152.396 43.0624 147.589 42.364 147.337C23.026 138.786 17.2852 127.329 15.7247 122.746C15.6746 122.605 15.582 122.482 15.4598 122.396C15.3377 122.309 15.1918 122.263 15.0423 122.263C14.8928 122.263 14.7464 122.309 14.6242 122.396C14.5021 122.482 14.4095 122.605 14.3594 122.746L12.8268 126.603C12.7966 126.729 12.733 126.846 12.6427 126.939C12.5523 127.033 12.4382 127.1 12.3129 127.134C12.1877 127.169 12.0552 127.168 11.93 127.134C11.8049 127.099 11.6909 127.032 11.6008 126.938C7.14247 120.12 8.36866 107.88 8.81451 104.582C8.82558 104.478 8.86013 104.377 8.91523 104.288C8.97035 104.199 9.04473 104.123 9.13294 104.067C9.22122 104.011 9.32147 103.974 9.42537 103.962C9.52927 103.95 9.63513 103.962 9.73405 103.996C17.2019 106.43 23.525 111.519 27.512 118.303C27.5734 118.426 27.5988 118.564 27.5851 118.701C27.5714 118.838 27.5186 118.968 27.434 119.077C27.3494 119.185 27.2356 119.267 27.1064 119.313C26.9772 119.359 26.8371 119.367 26.7035 119.337L21.6882 118.108C21.534 118.072 21.3714 118.087 21.2268 118.152C21.0824 118.217 20.9631 118.327 20.8872 118.467C20.8114 118.606 20.7833 118.767 20.8071 118.924C20.831 119.081 20.9056 119.227 21.0194 119.337L22.7469 121.013C33.2798 130.514 35.5093 132.191 45.3176 132.191C47.2549 132.207 49.1555 131.658 50.7877 130.611C52.42 129.565 53.7144 128.065 54.5131 126.295C55.4776 123.89 55.9515 123.299 55.9065 120.707C56.0179 114.392 56.1572 108.766 56.1572 102.451L56.5747 93.489L42.0017 92.1658C41.3204 93.2641 40.3007 94.1103 39.0973 94.5757C37.894 95.0411 36.5716 95.1008 35.3314 94.7456C34.0913 94.3903 33.0002 93.6389 32.2235 92.6063C31.4469 91.5738 31.0267 90.3157 31.0267 89.0224C31.0267 87.7289 31.4468 86.4704 32.2235 85.4378C33.0002 84.4053 34.0913 83.6539 35.3314 83.2986C36.5716 82.9434 37.894 83.0031 39.0973 83.4684C40.3007 83.9338 41.3204 84.7801 42.0017 85.8784L56.9928 84.5551V77.4951C53.941 76.4974 51.3436 74.4407 49.6684 71.6949C49.1263 70.8064 48.6929 69.8642 48.3708 68.8889H49.9088C52.3589 68.8888 54.3451 66.899 54.3452 64.4444C54.3451 61.9899 52.3589 60.0001 49.9088 60H48.504C49.296 57.8235 50.6371 55.8726 52.4162 54.3495C53.6525 53.2911 55.0593 52.4746 56.5634 51.926V53.3333C56.5634 55.7878 58.5498 57.7776 60.9997 57.7778C63.4498 57.7777 65.4361 55.7879 65.4361 53.3333V51.805ZM63.1383 59.3934C62.1201 58.9705 60.9992 58.8599 59.9183 59.0755C58.8374 59.2912 57.8442 59.8235 57.0648 60.6049C56.2855 61.3865 55.7549 62.3827 55.5398 63.4668C55.3248 64.5509 55.4349 65.6748 55.8566 66.696C56.2784 67.717 56.9928 68.59 57.9091 69.2041C58.8255 69.8181 59.9036 70.1459 61.0057 70.1459C62.4835 70.1459 63.9009 69.5569 64.946 68.5091C65.9911 67.461 66.5788 66.039 66.5788 64.5568C66.5787 63.4515 66.2515 62.3708 65.6392 61.4518C65.0268 60.5329 64.1565 59.8164 63.1383 59.3934Z" fill="white"/>
<path d="M103.462 46.6347C104.092 45.5823 105.454 45.241 106.505 45.8724C107.555 46.5038 107.896 47.8685 107.266 48.9209C100.672 59.9301 88.7964 66.6666 75.9809 66.6667H72.6455C71.4204 66.6667 70.4273 65.6717 70.4273 64.4444C70.4273 63.2171 71.4204 62.2222 72.6455 62.2222H75.9809C87.238 62.2222 97.6699 56.3052 103.462 46.6347Z" fill="white"/>
<path d="M117.564 16.6667C120.014 16.6667 122 18.6565 122 21.1111V45.5556C122 48.0102 120.014 50 117.564 50H109.204C110.413 47.9041 109.725 45.2172 107.646 43.967C105.545 42.7043 102.82 43.3869 101.56 45.4915C100.59 47.1116 99.4787 48.618 98.2493 50H93.1636C90.7135 50 88.7273 48.0102 88.7273 45.5556V21.1111C88.7273 18.6565 90.7135 16.6667 93.1636 16.6667H117.564Z" fill="white"/>
<path d="M58.7818 53.3333V31.1111C58.7818 29.8838 59.7749 28.8889 61 28.8889C62.2251 28.8889 63.2182 29.8838 63.2182 31.1111V53.3333C63.2182 54.5606 62.2251 55.5556 61 55.5556C59.7749 55.5556 58.7818 54.5606 58.7818 53.3333Z" fill="white"/>
<path d="M73.2 0C75.6501 0 77.6364 1.98985 77.6364 4.44444V28.8889C77.6364 31.3435 75.6501 33.3333 73.2 33.3333H65.4364V31.1111C65.4364 28.6565 63.4501 26.6667 61 26.6667C58.5499 26.6667 56.5636 28.6565 56.5636 31.1111V33.3333H48.8C46.3499 33.3333 44.3636 31.3435 44.3636 28.8889V4.44444C44.3636 1.98985 46.3499 1.25272e-07 48.8 0H73.2Z" fill="white"/>
<path d="M15.4953 45.8724C16.5458 45.241 17.908 45.5823 18.5383 46.6347C24.3301 56.3052 34.762 62.2222 46.0191 62.2222H49.9091C51.1342 62.2222 52.1273 63.2171 52.1273 64.4444C52.1273 65.6717 51.1342 66.6667 49.9091 66.6667H46.0191C33.2036 66.6666 21.328 59.9301 14.7344 48.9209C14.1042 47.8685 14.4449 46.5038 15.4953 45.8724Z" fill="white"/>
<path d="M28.8364 16.6667C31.2865 16.6667 33.2727 18.6565 33.2727 21.1111V45.5556C33.2727 48.0102 31.2865 50 28.8364 50H23.7512C22.5218 48.618 21.411 47.1116 20.4407 45.4915C19.2197 43.4527 16.6242 42.7482 14.553 43.8542L14.3543 43.967C12.2746 45.2171 11.5869 47.904 12.7962 50H4.43636C1.98623 50 1.25048e-07 48.0102 0 45.5556V21.1111C0 18.6565 1.98623 16.6667 4.43636 16.6667H28.8364Z" fill="white"/>
<path d="M14.9104 46.3813C14.9332 46.3531 14.9566 46.3249 14.9809 46.2977C14.9896 46.2879 14.9984 46.2781 15.0074 46.2684C14.9736 46.305 14.9415 46.3428 14.9104 46.3813Z" fill="white"/>
<path d="M15.028 46.2467C15.0371 46.2371 15.0463 46.2275 15.0556 46.218L15.1352 46.1415C15.0981 46.1755 15.0623 46.2106 15.028 46.2467Z" fill="white"/>
</svg>
